<svg width="100%" viewBox="0 0 1200 300" xmlns="http://www.w3.org/2000/svg" role="img" aria-label="PsycheSeek — a neon web control plane for Soulseek">
  <defs>
    <linearGradient id="ink" x1="0" y1="0" x2="1" y2="1">
      <stop offset="0" stop-color="#0b0b18"/>
      <stop offset="1" stop-color="#06060d"/>
    </linearGradient>
    <linearGradient id="wm" x1="0" y1="0" x2="1" y2="0">
      <stop offset="0" stop-color="#ff2e97"/>
      <stop offset="0.55" stop-color="#b06bff"/>
      <stop offset="1" stop-color="#23e0e6"/>
    </linearGradient>
    <linearGradient id="gold" x1="0" y1="0" x2="0" y2="1">
      <stop offset="0" stop-color="#ffe27a"/>
      <stop offset="1" stop-color="#ff9a3d"/>
    </linearGradient>
    <radialGradient id="glowV" cx="8%" cy="-10%" r="55%">
      <stop offset="0" stop-color="#9b7bff" stop-opacity="0.30"/>
      <stop offset="1" stop-color="#9b7bff" stop-opacity="0"/>
    </radialGradient>
    <radialGradient id="glowM" cx="102%" cy="4%" r="52%">
      <stop offset="0" stop-color="#ff2e97" stop-opacity="0.24"/>
      <stop offset="1" stop-color="#ff2e97" stop-opacity="0"/>
    </radialGradient>
    <radialGradient id="glowC" cx="94%" cy="108%" r="55%">
      <stop offset="0" stop-color="#23e0e6" stop-opacity="0.20"/>
      <stop offset="1" stop-color="#23e0e6" stop-opacity="0"/>
    </radialGradient>
    <pattern id="grid" width="34" height="34" patternUnits="userSpaceOnUse">
      <path d="M34 0H0V34" fill="none" stroke="#8c82e0" stroke-opacity="0.07" stroke-width="1"/>
    </pattern>
  </defs>

  <rect width="1200" height="300" rx="16" fill="url(#ink)"/>
  <rect width="1200" height="300" rx="16" fill="url(#grid)"/>
  <rect width="1200" height="300" rx="16" fill="url(#glowV)"/>
  <rect width="1200" height="300" rx="16" fill="url(#glowM)"/>
  <rect width="1200" height="300" rx="16" fill="url(#glowC)"/>
  <rect x="0.75" y="0.75" width="1198.5" height="298.5" rx="16" fill="none" stroke="#ff2e97" stroke-opacity="0.20"/>

  <!-- text block -->
  <text x="72" y="96" font-family="ui-monospace,'SF Mono',Menlo,Consolas,monospace" font-size="19" letter-spacing="11" fill="#8f8cc0">PSYCHESEEK</text>
  <text x="68" y="186" font-family="'Segoe UI',Roboto,Helvetica,Arial,sans-serif" font-weight="800" font-size="104" letter-spacing="6" fill="url(#wm)">PSEEK</text>
  <text x="72" y="238" font-family="'Segoe UI',Roboto,Helvetica,Arial,sans-serif" font-size="22" fill="#b9b7dc">A neon web control plane for Soulseek — download music to your media server.</text>

  <!-- canary song: equalizer -->
  <g transform="translate(946 150)">
    <circle cx="60" cy="0" r="118" fill="#ffd23f" opacity="0.05"/>
    <g fill="url(#gold)">
      <rect x="0"   y="-24" width="13" height="48"  rx="4"/>
      <rect x="24"  y="-52" width="13" height="104" rx="4"/>
      <rect x="48"  y="-84" width="13" height="168" rx="4"/>
      <rect x="72"  y="-40" width="13" height="80"  rx="4"/>
      <rect x="96"  y="-66" width="13" height="132" rx="4"/>
      <rect x="120" y="-30" width="13" height="60"  rx="4"/>
    </g>
  </g>
</svg>
